<?xml version="1.0" encoding="UTF-8"?>
<svg width="15px" height="26px" viewBox="0 0 15 26" version="1.1" xmlns="http://www.w3.org/2000/svg">
    <!-- Generator: Sketch 53.2 (72643) - https://sketchapp.com -->
    <title>grain-organicfood-v1-codrops-wojciechzasina</title>
    <desc>Created with Sketch.</desc>
    <g id="Web" stroke="none" stroke-width="1" fill="none" fill-rule="evenodd">
        <g id="homepage" transform="translate(-273.000000, -143.000000)" fill="#ffffff" fill-rule="nonzero">
            <g id="Group-4" transform="translate(249.000000, 126.000000)">
                <g id="department_4" transform="translate(1.000000, 0.000000)">
                    <g id="grain-organicfood-v1-codrops-wojciechzasina" transform="translate(23.000000, 17.000000)">
                        <path d="M0,12.9064748 C0,15.6475108 1.52034532,18.0393237 3.76139568,19.2856403 C3.74905036,19.3396978 3.74100719,19.3954388 3.74100719,19.4532374 L3.74100719,23.1942446 C3.74100719,23.6074388 4.07601439,23.942446 4.48920863,23.942446 C4.90240288,23.942446 5.23741007,23.6074388 5.23741007,23.1942446 L5.23741007,19.9040288 C5.65958273,20.0284173 6.09690647,20.1172662 6.54676259,20.1632806 L6.54676259,25.0647482 C6.54676259,25.4779424 6.88176978,25.8129496 7.29496403,25.8129496 C7.70815827,25.8129496 8.04316547,25.4779424 8.04316547,25.0647482 L8.04316547,20.1632806 C8.49283453,20.1172662 8.93034532,20.0284173 9.35251799,19.9040288 L9.35251799,23.1942446 C9.35251799,23.6074388 9.68752518,23.942446 10.1007194,23.942446 C10.5139137,23.942446 10.8489209,23.6074388 10.8489209,23.1942446 L10.8489209,19.4532374 C10.8489209,19.3954388 10.8408777,19.3396978 10.8285324,19.2856403 C13.0695827,18.0393237 14.5899281,15.6475108 14.5899281,12.9064748 C14.5899281,12.4932806 14.2549209,12.1582734 13.8417266,12.1582734 C13.4296547,12.1582734 13.0263741,12.1943741 12.632446,12.2602158 C13.8456547,10.957036 14.5899281,9.21166906 14.5899281,7.29496403 C14.5899281,6.88176978 14.2549209,6.54676259 13.8417266,6.54676259 C12.2020432,6.54676259 10.6874964,7.09070504 9.46774101,8.00743885 C10.4725755,5.39677698 9.92601439,2.32110791 7.82394245,0.219223022 C7.53158273,-0.0729496403 7.05815827,-0.0729496403 6.76579856,0.219223022 C5.38798561,1.59722302 4.6291223,3.42919424 4.6291223,5.37769784 C4.6291223,6.2905036 4.79765468,7.17693525 5.11638849,8.00388489 C3.89794245,7.08958273 2.38545324,6.54676259 0.748201439,6.54676259 C0.335007194,6.54676259 0,6.88176978 0,7.29496403 C0,9.21185612 0.744273381,10.957223 1.95748201,12.2604029 C1.56374101,12.1943741 1.16027338,12.1582734 0.748201439,12.1582734 C0.335007194,12.1582734 0,12.4932806 0,12.9064748 Z M7.29496403,14.5899281 C7.29627338,14.5899281 7.29739568,14.5899281 7.29870504,14.5899281 C7.29907914,14.5899281 7.29945324,14.5899281 7.30001439,14.5899281 C7.71040288,14.589554 8.11218705,14.5538273 8.5042446,14.4879856 C8.02090647,15.0066763 7.61238849,15.5956978 7.29552518,16.2378417 C6.97884892,15.5953237 6.56976978,15.0070504 6.08680576,14.4879856 C6.47998561,14.5542014 6.88326619,14.5899281 7.29496403,14.5899281 Z M8.09871942,18.649482 C8.45448921,16.0938129 10.4823022,14.066 13.0379712,13.7102302 C12.6822014,16.2658993 10.6543885,18.2937122 8.09871942,18.649482 Z M13.0379712,8.09871942 C12.6822014,10.6543885 10.6543885,12.6822014 8.09871942,13.0379712 C8.45448921,10.4823022 10.4823022,8.45448921 13.0379712,8.09871942 Z M7.29458993,1.88434532 C8.85047482,3.94320863 8.85047482,6.8116259 7.29458993,8.87067626 C6.53610072,7.86976978 6.12552518,6.6552518 6.12552518,5.37769784 C6.12571223,4.09995683 6.53610072,2.8852518 7.29458993,1.88434532 Z M6.49120863,13.0379712 C3.93553957,12.6822014 1.90772662,10.6543885 1.55195683,8.09871942 C4.1076259,8.45448921 6.13543885,10.4823022 6.49120863,13.0379712 Z M6.49120863,18.649482 C3.93553957,18.2937122 1.90772662,16.2658993 1.55195683,13.7102302 C4.1076259,14.066 6.13543885,16.0938129 6.49120863,18.649482 Z" id="grain"></path>
                    </g>
                </g>
            </g>
        </g>
    </g>
</svg>
